<svg width="28" height="27" viewBox="0 0 28 27" fill="none" xmlns="http://www.w3.org/2000/svg">
<path fill-rule="evenodd" clip-rule="evenodd" d="M13.6836 0C10.434 0.00168604 7.29094 1.15263 4.81646 3.24704C2.34197 5.34145 0.697412 8.24274 0.176841 11.4321C-0.343729 14.6215 0.293629 17.8911 1.97496 20.6561C3.6563 23.4211 6.27196 25.5013 9.35425 26.5248C10.0343 26.651 10.2904 26.2295 10.2904 25.8712C10.2904 25.5128 10.2768 24.4738 10.2722 23.3379C6.46423 24.1606 5.65957 21.731 5.65957 21.731C5.0385 20.1533 4.14089 19.7386 4.14089 19.7386C2.89876 18.8957 4.23384 18.9115 4.23384 18.9115C5.60971 19.0084 6.33278 20.3156 6.33278 20.3156C7.55225 22.3958 9.53558 21.7941 10.3153 21.4425C10.4377 20.5613 10.7936 19.9618 11.1857 19.6214C8.14385 19.2789 4.94783 18.1114 4.94783 12.8961C4.92898 11.5436 5.43375 10.2356 6.35771 9.24277C6.21718 8.90019 5.74797 7.51637 6.49144 5.63671C6.49144 5.63671 7.64065 5.2716 10.2564 7.03181C12.5 6.42174 14.8672 6.42174 17.1108 7.03181C19.7243 5.2716 20.8712 5.63671 20.8712 5.63671C21.617 7.51186 21.1478 8.89568 21.0072 9.24277C21.9341 10.2358 22.4399 11.546 22.4194 12.9007C22.4194 18.1272 19.2166 19.2789 16.1701 19.6147C16.6597 20.0384 17.0972 20.8655 17.0972 22.1367C17.0972 23.9577 17.0814 25.4227 17.0814 25.8712C17.0814 26.234 17.3284 26.6577 18.022 26.5248C21.1047 25.5012 23.7206 23.4206 25.4019 20.6551C27.0832 17.8896 27.7202 14.6196 27.1991 11.4299C26.6779 8.24023 25.0325 5.3389 22.5572 3.24485C20.0819 1.15081 16.9381 0.000617343 13.6881 0H13.6836Z" fill="white"/>
<path d="M5.1787 19.5426C5.14924 19.6102 5.04044 19.6305 4.95204 19.5831C4.86363 19.5358 4.79791 19.4479 4.82964 19.3781C4.86137 19.3082 4.96791 19.2902 5.05631 19.3375C5.14471 19.3848 5.2127 19.475 5.1787 19.5426Z" fill="white"/>
<path d="M5.73395 20.1578C5.68701 20.1813 5.6333 20.1879 5.58203 20.1764C5.53076 20.1649 5.48511 20.136 5.45288 20.0947C5.36448 20.0001 5.34634 19.8693 5.41434 19.8107C5.48234 19.7521 5.60475 19.7792 5.69315 19.8738C5.78155 19.9685 5.80195 20.0992 5.73395 20.1578Z" fill="white"/>
<path d="M6.27357 20.9399C6.1897 20.9985 6.04689 20.9399 5.96756 20.8227C5.94562 20.8017 5.92818 20.7764 5.91626 20.7486C5.90434 20.7207 5.89819 20.6907 5.89819 20.6604C5.89819 20.6301 5.90434 20.6001 5.91626 20.5722C5.92818 20.5444 5.94562 20.5192 5.96756 20.4981C6.05143 20.4418 6.19424 20.4981 6.27357 20.6131C6.3529 20.728 6.35517 20.8813 6.27357 20.9399V20.9399Z" fill="white"/>
<path d="M7.00577 21.6972C6.93097 21.7806 6.7791 21.758 6.65444 21.6453C6.52977 21.5326 6.5003 21.3794 6.5751 21.2982C6.6499 21.2171 6.80176 21.2397 6.93096 21.3501C7.06017 21.4605 7.0851 21.616 7.00577 21.6972V21.6972Z" fill="white"/>
<path d="M8.0325 22.1389C7.9985 22.2448 7.84437 22.2922 7.69023 22.2471C7.5361 22.202 7.4341 22.0758 7.46357 21.9676C7.49303 21.8594 7.64944 21.8098 7.80584 21.8594C7.96224 21.909 8.06197 22.0285 8.0325 22.1389Z" fill="white"/>
<path d="M9.15225 22.2155C9.15225 22.326 9.02532 22.4206 8.86212 22.4229C8.69892 22.4251 8.56519 22.335 8.56519 22.2245C8.56519 22.1141 8.69211 22.0194 8.85531 22.0172C9.01851 22.0149 9.15225 22.1028 9.15225 22.2155Z" fill="white"/>
<path d="M10.1949 22.042C10.2153 22.1524 10.102 22.2674 9.93881 22.2944C9.77561 22.3215 9.63281 22.2561 9.61241 22.1479C9.59201 22.0397 9.70987 21.9226 9.86854 21.8933C10.0272 21.864 10.1745 21.9316 10.1949 22.042Z" fill="white"/>
</svg>
